<svg width="157" height="37" viewBox="0 0 157 37" fill="none" xmlns="http://www.w3.org/2000/svg">
<path d="M52.1288 26.6018C50.4295 26.6018 49.0023 26.2223 47.8474 25.4633C46.6925 24.7044 45.8841 23.6815 45.4221 22.3946L48.1444 20.786C48.8209 22.5513 50.1737 23.434 52.2031 23.434C53.1105 23.434 53.8117 23.2195 54.3066 22.7906C54.8016 22.3616 55.0491 21.8667 55.0491 21.3057C55.0491 20.7447 54.7769 20.291 54.2324 19.9446C53.7044 19.5981 52.7558 19.2269 51.3864 18.8309C50.314 18.5009 49.4066 18.1462 48.6641 17.7668C47.9217 17.3708 47.3112 16.8428 46.8328 16.1829C46.3708 15.5229 46.1398 14.6898 46.1398 13.6834C46.1398 12.6604 46.3956 11.7695 46.907 11.0106C47.4185 10.2351 48.0949 9.64944 48.9364 9.25348C49.7943 8.84101 50.7264 8.63478 51.7329 8.63478C53.1352 8.63478 54.3479 8.973 55.3708 9.64944C56.4102 10.3094 57.2104 11.2416 57.7713 12.446L54.9996 14.0298C54.3561 12.5614 53.2672 11.8273 51.7329 11.8273C51.0399 11.8273 50.4707 12.0087 50.0253 12.3717C49.5798 12.7347 49.3571 13.1636 49.3571 13.6586C49.3571 14.0381 49.4561 14.3598 49.654 14.6238C49.8685 14.8877 50.1985 15.127 50.644 15.3415C51.1059 15.5559 51.7741 15.7952 52.6485 16.0591C53.7869 16.4221 54.7439 16.8016 55.5193 17.1976C56.3112 17.5935 56.9629 18.1462 57.4744 18.8557C58.0023 19.5486 58.2663 20.423 58.2663 21.4789C58.2663 22.5183 58.0023 23.4258 57.4744 24.2012C56.9464 24.9766 56.2122 25.5706 55.2718 25.9831C54.3479 26.3955 53.3002 26.6018 52.1288 26.6018ZM64.2706 22.0481C64.2706 22.6091 64.4026 22.9968 64.6665 23.2113C64.9305 23.4258 65.3512 23.533 65.9287 23.533C66.2752 23.533 66.6546 23.5083 67.0671 23.4588V26.28C66.2916 26.3625 65.6482 26.4038 65.1367 26.4038C63.8169 26.4038 62.8269 26.1068 62.167 25.5128C61.5236 24.9024 61.2018 23.8135 61.2018 22.2461V16.6531H58.8755V13.9061H61.2018V10.8621L64.2706 9.82268V13.9061H67.0176V16.6531H64.2706V22.0481ZM78.8258 13.9061H81.8946V26.28H78.8258V25.0674C78.2484 25.5623 77.6132 25.9501 76.9202 26.2305C76.2438 26.4945 75.5261 26.6265 74.7672 26.6265C73.5133 26.6265 72.4161 26.346 71.4757 25.7851C70.5353 25.2241 69.8093 24.4487 69.2979 23.4588C68.8029 22.4689 68.5554 21.3552 68.5554 20.1178C68.5554 18.8804 68.8029 17.7668 69.2979 16.7768C69.8093 15.7869 70.5353 15.0115 71.4757 14.4505C72.4161 13.8731 73.5133 13.5844 74.7672 13.5844C75.5261 13.5844 76.2438 13.7246 76.9202 14.0051C77.6132 14.2691 78.2484 14.6485 78.8258 15.1435V13.9061ZM75.1631 23.6815C75.8396 23.6815 76.45 23.533 76.9945 23.236C77.5554 22.9226 77.9926 22.4936 78.3061 21.9491C78.6361 21.4047 78.8011 20.786 78.8011 20.0931C78.8011 19.0536 78.4463 18.204 77.7369 17.544C77.044 16.8841 76.186 16.5541 75.1631 16.5541C74.1237 16.5541 73.2658 16.8923 72.5893 17.5688C71.9294 18.2287 71.5994 19.0784 71.5994 20.1178C71.5994 21.1572 71.9294 22.0151 72.5893 22.6916C73.2658 23.3515 74.1237 23.6815 75.1631 23.6815ZM92.4014 13.6586L92.1787 16.5541C92.0797 16.5211 91.9064 16.5046 91.6589 16.5046C90.636 16.5046 89.7864 16.8016 89.1099 17.3955C88.45 17.9895 88.12 18.7979 88.12 19.8208V26.28H85.0513V13.9061H88.12V15.9849C88.4005 15.325 88.8789 14.7723 89.5554 14.3268C90.2318 13.8813 91.0485 13.6586 92.0054 13.6586H92.4014ZM99.3865 22.0481C99.3865 22.6091 99.5185 22.9968 99.7824 23.2113C100.046 23.4258 100.467 23.533 101.045 23.533C101.391 23.533 101.771 23.5083 102.183 23.4588V26.28C101.408 26.3625 100.764 26.4038 100.253 26.4038C98.9328 26.4038 97.9429 26.1068 97.2829 25.5128C96.6395 24.9024 96.3177 23.8135 96.3177 22.2461V16.6531H93.9914V13.9061H96.3177V10.8621L99.3865 9.82268V13.9061H102.133V16.6531H99.3865V22.0481ZM112.302 13.9061H115.371V26.28H112.302V25.2406C111.857 25.6531 111.362 25.9831 110.817 26.2305C110.273 26.478 109.695 26.6018 109.085 26.6018C108.359 26.6018 107.616 26.4533 106.857 26.1563C106.115 25.8428 105.472 25.2901 104.927 24.4982C104.399 23.7062 104.135 22.6421 104.135 21.3057V13.9061H107.204V21.3057C107.204 22.2296 107.46 22.8978 107.971 23.3103C108.499 23.7062 109.11 23.9042 109.802 23.9042C110.495 23.9042 111.081 23.665 111.56 23.1865C112.055 22.6916 112.302 21.9079 112.302 20.8355V13.9061ZM125.651 13.5844C126.904 13.5844 128.002 13.8648 128.942 14.4258C129.899 14.9867 130.625 15.7622 131.12 16.7521C131.631 17.742 131.887 18.8557 131.887 20.0931C131.887 21.3305 131.631 22.4441 131.12 23.434C130.625 24.4239 129.899 25.2076 128.942 25.7851C128.002 26.346 126.904 26.6265 125.651 26.6265C124.908 26.6265 124.19 26.4945 123.498 26.2305C122.821 25.9501 122.194 25.5623 121.617 25.0674V31.2296H118.548V13.9061H121.617V15.1187C122.178 14.6238 122.805 14.2443 123.498 13.9803C124.19 13.7163 124.908 13.5844 125.651 13.5844ZM125.279 23.6568C126.302 23.6568 127.144 23.3268 127.804 22.6668C128.48 21.9904 128.818 21.1325 128.818 20.0931C128.818 19.0536 128.48 18.204 127.804 17.544C127.144 16.8676 126.302 16.5294 125.279 16.5294C124.603 16.5294 123.984 16.6861 123.423 16.9996C122.862 17.2965 122.417 17.7173 122.087 18.2617C121.773 18.8062 121.617 19.4249 121.617 20.1178C121.617 21.1572 121.963 22.0069 122.656 22.6668C123.366 23.3268 124.24 23.6568 125.279 23.6568ZM149.815 17.5935L155.433 26.28H151.572L147.563 20.0683L143.554 26.28H139.693L145.311 17.5935L139.718 8.9565H143.578L147.563 15.1187L151.547 8.9565H155.408L149.815 17.5935Z" fill="#292C32"/>
<ellipse rx="5.84744" ry="5.84021" transform="matrix(1 0 0 -1 9.85525 28.5004)" fill="#FFD584"/>
<path d="M19.8633 36.2965V36.2965C28.215 36.2965 34.9855 29.5261 34.9855 21.1743V0.64621V0.64621C26.6337 0.64621 19.8633 7.41666 19.8633 15.7684V36.2965Z" fill="#1E756B"/>
<path fill-rule="evenodd" clip-rule="evenodd" d="M2.71591 19.2832C3.10107 19.3137 3.49046 19.3292 3.88348 19.3292C11.929 19.3292 18.4511 12.8151 18.4511 4.77958C18.4511 4.21442 18.4189 3.65679 18.3561 3.10841C16.4231 1.56762 13.9731 0.64658 11.3078 0.64658C5.06266 0.64658 0 5.70298 0 11.9404C0 14.7438 1.02274 17.3087 2.71591 19.2832Z" fill="#055F5B"/>
</svg>
